<?xml version="1.0" encoding="UTF-8"?> <svg xmlns="http://www.w3.org/2000/svg" width="108" height="52" viewBox="0 0 108 52" fill="none"><path d="M15.8537 49.8034H14.1762L13.7122 50.9506H13.1328L15.0409 46.4023H15.0784L16.9864 50.9506H16.3091L15.8566 49.8034H15.8537ZM15.6548 49.2962L15.0322 47.7023L14.3866 49.2962H15.6548Z" fill="#F8F8F2"></path><path d="M20.7928 47.1612C20.617 47.1093 20.4498 47.0834 20.2913 47.0834C20.0549 47.0834 19.8647 47.1381 19.7263 47.2448C19.588 47.3514 19.5188 47.4984 19.5188 47.6829C19.5188 47.8673 19.5995 48.0115 19.7638 48.1267C19.9281 48.242 20.1587 48.3544 20.4613 48.4669C20.6861 48.5476 20.8764 48.634 21.032 48.7291C21.1877 48.8243 21.3145 48.954 21.4182 49.1211C21.522 49.2883 21.571 49.5016 21.571 49.7581C21.571 49.9916 21.5134 50.202 21.3952 50.3922C21.277 50.5825 21.1127 50.7295 20.8965 50.839C20.6804 50.9485 20.4296 51.0033 20.1385 51.0033C19.8676 51.0033 19.6082 50.96 19.3603 50.8736C19.1095 50.7871 18.8905 50.6776 18.7031 50.545L18.9625 50.0809C19.1124 50.1933 19.2911 50.2885 19.4986 50.3692C19.709 50.447 19.9022 50.4873 20.0837 50.4873C20.3172 50.4873 20.5218 50.4268 20.6977 50.3058C20.8735 50.1847 20.96 50.006 20.96 49.7697C20.96 49.5679 20.885 49.4094 20.7409 49.2883C20.5939 49.1701 20.3864 49.0577 20.1212 48.954C19.8762 48.8617 19.6716 48.7695 19.5073 48.683C19.343 48.5937 19.2046 48.4726 19.0865 48.317C18.9683 48.1613 18.9107 47.9682 18.9107 47.7348C18.9107 47.3918 19.0317 47.1151 19.2709 46.9047C19.5102 46.6942 19.8215 46.5818 20.2048 46.5703C20.6746 46.5703 21.1127 46.6885 21.5162 46.9219L21.2914 47.3745C21.1358 47.2909 20.9686 47.2217 20.7899 47.1698L20.7928 47.1612Z" fill="#F8F8F2"></path><path d="M25.4334 47.1612C25.2576 47.1093 25.0904 47.0834 24.9319 47.0834C24.6955 47.0834 24.5053 47.1381 24.367 47.2448C24.2286 47.3514 24.1594 47.4984 24.1594 47.6829C24.1594 47.8673 24.2401 48.0115 24.4044 48.1267C24.5687 48.242 24.7993 48.3544 25.1019 48.4669C25.3268 48.5476 25.517 48.634 25.6726 48.7291C25.8283 48.8243 25.9551 48.954 26.0589 49.1211C26.1626 49.2883 26.2116 49.5016 26.2116 49.7581C26.2116 49.9916 26.154 50.202 26.0358 50.3922C25.9176 50.5825 25.7533 50.7295 25.5372 50.839C25.321 50.9485 25.0702 51.0033 24.7791 51.0033C24.5082 51.0033 24.2488 50.96 24.0009 50.8736C23.7502 50.7871 23.5311 50.6776 23.3438 50.545L23.6032 50.0809C23.753 50.1933 23.9317 50.2885 24.1393 50.3692C24.3497 50.447 24.5428 50.4873 24.7244 50.4873C24.9578 50.4873 25.1625 50.4268 25.3383 50.3058C25.5141 50.1847 25.6006 50.006 25.6006 49.7697C25.6006 49.5679 25.5256 49.4094 25.3815 49.2883C25.2345 49.1701 25.027 49.0577 24.7618 48.954C24.5168 48.8617 24.3122 48.7695 24.1479 48.683C23.9836 48.5937 23.8453 48.4726 23.7271 48.317C23.6089 48.1613 23.5513 47.9682 23.5513 47.7348C23.5513 47.3918 23.6723 47.1151 23.9116 46.9047C24.1508 46.6942 24.4621 46.5818 24.8454 46.5703C25.3152 46.5703 25.7533 46.6885 26.1569 46.9219L25.932 47.3745C25.7764 47.2909 25.6092 47.2217 25.4305 47.1698L25.4334 47.1612Z" fill="#F8F8F2"></path><path d="M31.2112 46.5879V47.1499H28.9601V48.4787H30.9719V49.0407H28.9601V50.3867H31.2976V50.9546H28.375V46.5879H31.2141H31.2112Z" fill="#F8F8F2"></path><path d="M36.0412 46.5879V47.1499H34.871V50.9546H34.2859V47.1499H33.1445V46.5879H36.0441H36.0412Z" fill="#F8F8F2"></path><path d="M45.6415 46.4453V50.9503H45.0622V48.1257L43.4567 50.4027H43.4452L41.8686 48.2035V50.9503H41.3008V46.4453H41.3065L43.4567 49.489L45.6357 46.4453H45.6415Z" fill="#F8F8F2"></path><path d="M50.3185 49.8034H48.641L48.177 50.9506H47.5977L49.5057 46.4023H49.5432L51.4513 50.9506H50.7739L50.3214 49.8034H50.3185ZM50.1197 49.2962L49.4971 47.7023L48.8515 49.2962H50.1197Z" fill="#F8F8F2"></path><path d="M57.2002 46.5877V51.0984H57.1829L53.9778 47.8443L53.9893 50.9543H53.3984V46.4551H53.4273L56.6266 49.7467L56.6151 46.5877H57.2002Z" fill="#F8F8F2"></path><path d="M61.8732 49.8034H60.1957L59.7317 50.9506H59.1523L61.0604 46.4023H61.0979L63.006 50.9506H62.3286L61.8761 49.8034H61.8732ZM61.6743 49.2962L61.0518 47.7023L60.4061 49.2962H61.6743Z" fill="#F8F8F2"></path><path d="M67.6009 50.8673C67.3184 50.9567 67.0533 50.9999 66.814 50.9999C66.3586 50.9999 65.958 50.9077 65.6121 50.7203C65.2662 50.533 64.9982 50.2765 64.8108 49.9508C64.6235 49.6251 64.5312 49.259 64.5312 48.8526C64.5312 48.377 64.6321 47.9649 64.8339 47.619C65.0356 47.2702 65.3066 47.0051 65.6496 46.8177C65.9926 46.6332 66.3673 46.541 66.7737 46.541C67.0187 46.541 67.2521 46.5698 67.4683 46.6275C67.6845 46.6851 67.8805 46.763 68.0534 46.8609L67.8603 47.3971C67.7306 47.325 67.5692 47.2616 67.3732 47.2068C67.1772 47.1521 67.0014 47.1261 66.8457 47.1261C66.5085 47.1261 66.2087 47.1953 65.9493 47.3308C65.6899 47.4691 65.4882 47.6622 65.3498 47.9159C65.2086 48.1695 65.1394 48.4664 65.1394 48.8036C65.1394 49.1178 65.2086 49.3974 65.3498 49.6424C65.4911 49.8874 65.6899 50.0776 65.9465 50.2131C66.203 50.3485 66.497 50.4148 66.8284 50.4148C66.9812 50.4148 67.1311 50.4004 67.2752 50.3687C67.4193 50.3399 67.5404 50.2966 67.6384 50.239V49.3743H66.7679V48.8123H68.2292V50.5762C68.0966 50.68 67.8891 50.778 67.6038 50.8673H67.6009Z" fill="#F8F8F2"></path><path d="M73.3713 46.5879V47.1499H71.1203V48.4787H73.1321V49.0407H71.1203V50.3867H73.4578V50.9546H70.5352V46.5879H73.3742H73.3713Z" fill="#F8F8F2"></path><path d="M79.9345 46.4453V50.9503H79.3551V48.1257L77.7497 50.4027H77.7382L76.1616 48.2035V50.9503H75.5938V46.4453H75.5995L77.7497 49.489L79.9287 46.4453H79.9345Z" fill="#F8F8F2"></path><path d="M85.2112 46.5879V47.1499H82.9601V48.4787H84.9719V49.0407H82.9601V50.3867H85.2976V50.9546H82.375V46.5879H85.2141H85.2112Z" fill="#F8F8F2"></path><path d="M91.2314 46.5877V51.0984H91.2141L88.009 47.8443L88.0206 50.9543H87.4297V46.4551H87.4585L90.6579 49.7467L90.6463 46.5877H91.2314Z" fill="#F8F8F2"></path><path d="M96.1389 46.5879V47.1499H94.9687V50.9546H94.3836V47.1499H93.2422V46.5879H96.1418H96.1389Z" fill="#F8F8F2"></path><path d="M40.897 9.93288C40.897 8.00751 39.3348 6.44531 37.4094 6.44531C35.4841 6.44531 33.9219 8.00751 33.9219 9.93288C33.9219 11.8583 35.4841 13.4205 37.4094 13.4205C39.3348 13.4205 40.897 11.8583 40.897 9.93288Z" fill="#7F87AC"></path><path d="M29.5758 5.57787C28.5843 7.11413 27.6476 8.56969 26.78 9.91283C25.2005 9.07697 23.7046 8.14023 22.0991 7.47153C19.4878 6.38491 16.7467 6.2408 14.0259 7.05937C10.2443 8.19499 7.83758 10.7631 6.78266 14.5245C5.85745 17.8305 6.15432 21.0788 7.74535 24.1513C10.129 28.7572 14.7752 30.7085 19.6953 29.8439C22.5747 29.3366 24.6932 28.1548 27.2815 25.8404C28.3393 27.2873 29.3913 28.7284 30.4722 30.207C28.4921 32.2592 26.1805 33.7119 23.5403 34.5708C18.1043 36.3405 12.8095 36.0177 7.87217 32.9913C3.48244 30.3021 1.05844 26.2266 0.257159 21.1883C-0.325063 17.5163 0.0496343 13.9336 1.70695 10.5671C4.34424 5.2147 8.6648 2.10759 14.5562 1.24579C19.116 0.5771 23.4077 1.39279 27.3478 3.83697C27.8753 4.16267 28.3624 4.55178 28.8581 4.92936C29.0887 5.10518 29.2905 5.31847 29.5758 5.57787Z" fill="#F8F8F2"></path><path d="M68.1899 34.9823H62.5349V31.9358C62.3619 32.0049 62.2841 32.0107 62.2553 32.0539C58.811 37.3026 48.9391 37.0662 45.6937 29.6588C43.5262 24.707 43.5925 19.6947 46.4603 14.985C49.0544 10.7308 54.9141 9.05327 59.4364 11.1545C60.3645 11.5839 61.1687 12.2728 62.1227 12.904V3.79021L68.1899 0V34.9823ZM62.0506 20.5738C61.4598 17.7722 59.4969 15.8353 57.0528 15.5817C54.4846 15.3165 52.1702 16.6913 51.1556 19.2335C50.0632 21.9803 50.1353 24.756 51.4698 27.4048C52.4843 29.4166 54.1964 30.4571 56.4763 30.4139C58.7418 30.3707 60.4827 29.3273 61.3906 27.2665C62.6444 24.8857 62.2236 21.3952 62.0478 20.5709" fill="#F8F8F2"></path><path d="M94.544 24.1691H78.1034C78.1812 26.1204 78.9479 27.6134 80.3429 28.7375C82.7323 30.66 85.4503 30.7839 88.2231 29.8155C89.5634 29.3485 90.8028 28.5934 92.1978 27.916C92.9097 29.2333 93.6649 30.6283 94.4633 32.104C92.7425 33.5855 90.8056 34.5482 88.6612 35.0785C83.9775 36.2315 79.5532 35.6982 75.8725 32.398C71.8776 28.8153 70.9265 24.1835 72.2639 19.1337C73.5724 14.1935 76.9217 11.2103 81.9657 10.4782C89.5173 9.38005 93.979 13.8707 94.616 20.0878C94.6938 20.8343 94.74 21.5865 94.7342 22.3359C94.7284 22.9153 94.616 23.4946 94.5411 24.172M88.4076 19.8312C88.5805 17.0642 86.5831 15.038 83.8564 15.0553C80.9079 15.0726 78.2907 17.3467 78.4118 19.8312H88.4047H88.4076Z" fill="#F8F8F2"></path><path d="M98.654 3.79123C98.654 3.79123 98.6107 19.4507 98.6799 28.0918C98.7231 33.5047 103.024 36.6522 107.998 35.0122V29.8759C107.71 29.8558 107.517 29.8385 107.324 29.8327C105.56 29.7808 104.903 29.1611 104.799 27.4174C104.762 26.7977 104.744 26.1751 104.744 25.5525C104.741 17.9923 104.738 0.00390625 104.738 0.00390625L98.654 3.79412V3.79123Z" fill="#F8F8F2"></path><path d="M40.5742 17.4004V34.9478H34.6367V21.1387L40.5742 17.4004Z" fill="#F8F8F2"></path></svg> 